<svg xmlns="http://www.w3.org/2000/svg" width="64" height="64" viewBox="0 0 64 64">
  <g fill-rule="evenodd" transform="translate(9.599 6.762)">
    <polygon points="26.788 31.4 42.381 49.711 45.408 47.209 29.814 28.898"/>
    <path d="M17.9929531,4.37714196 C10.5032408,4.37714196 4.41129448,10.7013054 4.41129448,18.4751587 C4.41129448,26.249012 10.5032408,32.5731754 17.9929531,32.5731754 C25.4826654,32.5731754 31.5755919,26.249012 31.5755919,18.4751587 C31.5755919,10.7013054 25.4826654,4.37714196 17.9929531,4.37714196 M17.9929531,36.9193476 C8.07136328,36.9193476 0.000392080216,28.6452016 0.000392080216,18.4751587 C0.000392080216,8.30511579 8.07136328,0.0309697769 17.9929531,0.0309697769 C27.9145429,0.0309697769 35.9864943,8.30511579 35.9864943,18.4751587 C35.9864943,28.6452016 27.9145429,36.9193476 17.9929531,36.9193476"/>
  </g>
</svg>
