<?xml version="1.0" encoding="UTF-8"?>
<svg width="64px" height="64px" viewBox="0 0 64 64" version="1.1" xmlns="http://www.w3.org/2000/svg" xmlns:xlink="http://www.w3.org/1999/xlink">
    <!-- Generator: Sketch 49.3 (51167) - http://www.bohemiancoding.com/sketch -->
    <title>play</title>
    <desc>Created with Sketch.</desc>
    <defs></defs>
    <g id="play" stroke="none" stroke-width="1" fill="none" fill-rule="evenodd">
        <g id="Group" transform="translate(6.000000, 6.000000)" fill="#000000">
            <g id="Group-7">
                <path d="M25.7901002,52.5802005 C10.9943364,52.5802005 -1,40.585864 -1,25.7901002 C-1,10.9943364 10.9943364,-1 25.7901002,-1 C40.585864,-1 52.5802005,10.9943364 52.5802005,25.7901002 C52.5802005,40.585864 40.585864,52.5802005 25.7901002,52.5802005 Z M25.7901002,50.5802005 C39.4812945,50.5802005 50.5802005,39.4812945 50.5802005,25.7901002 C50.5802005,12.0989059 39.4812945,1 25.7901002,1 C12.0989059,1 1,12.0989059 1,25.7901002 C1,39.4812945 12.0989059,50.5802005 25.7901002,50.5802005 Z" id="Oval" fill-rule="nonzero"></path>
                <polygon id="Triangle-2" points="36.5959983 25.7901002 18.4228822 38.2553154 18.4228822 13.3248851"></polygon>
            </g>
        </g>
    </g>
</svg>