<!-- Generated by IcoMoon.io -->
<svg version="1.1" xmlns="http://www.w3.org/2000/svg" width="52" height="32" viewBox="0 0 52 32">
<title>icon-google_pay</title>
<path d="M48.64 0h-44.8c-2.133 0-3.84 1.707-3.84 3.84v24.32c0 2.133 1.707 3.755 3.84 3.84h44.8c2.133 0 3.84-1.707 3.84-3.84v-24.32c0-2.133-1.707-3.84-3.84-3.84zM51.2 28.16c0 1.451-1.109 2.56-2.56 2.56h-44.8c-1.451 0-2.56-1.109-2.56-2.56v-24.32c0-0.085 0-0.171 0-0.256s0-0.171 0-0.256c0-0.085 0.085-0.171 0.085-0.256s0-0.171 0.085-0.171c0-0.085 0.085-0.171 0.171-0.256 0-0.085 0.085-0.085 0.085-0.171 0-0.171 0.085-0.256 0.171-0.341 0-0.085 0.085-0.085 0.085-0.171 0.085-0.085 0.171-0.171 0.256-0.171s0.085-0.085 0.171-0.085 0.171-0.085 0.256-0.171c0.085 0 0.085-0.085 0.171-0.085 0.085-0.085 0.256-0.085 0.341-0.085s0.085 0 0.171 0c0.171 0 0.341-0.085 0.512-0.085h44.8c0.171 0 0.341 0 0.512 0.085 0.085 0 0.085 0 0.171 0s0.256 0.085 0.341 0.085c0.085 0 0.085 0.085 0.171 0.085 0.085 0.085 0.171 0.085 0.256 0.171 0.085 0 0.085 0.085 0.171 0.085 0.085 0.085 0.171 0.085 0.256 0.171s0.085 0.085 0.085 0.171c0.085 0.085 0.171 0.171 0.171 0.256s0.085 0.085 0.085 0.171 0.085 0.171 0.171 0.256c0 0.085 0 0.171 0.085 0.171 0 0.085 0.085 0.171 0.085 0.256 0 0.171 0 0.171 0 0.256s0 0.171 0 0.341v24.32z"></path>
<path d="M29.952 11.093c-0.683-0.597-1.536-0.939-2.389-0.939h-3.755v11.008h1.451v-4.437h2.304c0.939 0 1.792-0.341 2.389-0.939l0.171-0.171c0 0 0 0 0 0 1.195-1.28 1.109-3.328-0.171-4.523zM28.928 14.763c-0.341 0.341-0.853 0.597-1.365 0.597h-2.389v-3.84h2.389c0.512 0 0.939 0.171 1.365 0.512 0.768 0.768 0.768 1.963 0 2.731z"></path>
<path d="M13.397 14.421v2.475h3.413c-0.171 0.768-0.597 1.451-1.28 1.877-1.792 1.109-4.181 0.597-5.291-1.195-0.171-0.256-0.341-0.512-0.427-0.853v0c-0.256-0.768-0.256-1.621 0-2.389 0.512-1.536 1.963-2.56 3.584-2.645 0.939 0 1.792 0.341 2.389 0.939l1.792-1.792c-1.195-1.109-2.645-1.707-4.267-1.621-2.389 0-4.523 1.365-5.632 3.499-0.853 1.792-0.853 3.925 0.085 5.717v0c1.109 2.133 3.243 3.499 5.632 3.499 1.536 0 3.072-0.512 4.181-1.536v0 0c1.28-1.195 1.963-2.901 1.877-4.608 0-0.427 0-0.853-0.085-1.28h-5.973z"></path>
<path d="M34.219 13.397c-1.195-0.085-2.389 0.512-3.072 1.451l1.28 0.768c0.427-0.597 1.109-1.024 1.877-1.024 0.512 0 1.024 0.171 1.365 0.512s0.597 0.768 0.597 1.28v0.256c-0.683-0.256-1.451-0.427-2.133-0.427-0.853 0-1.707 0.256-2.389 0.683-0.597 0.427-0.853 1.109-0.853 1.877 0 0.683 0.341 1.365 0.853 1.877 0.597 0.512 1.28 0.768 2.048 0.768 0.939 0 1.877-0.512 2.304-1.28h0.085v1.024h1.365v-4.608c0.085-0.853-0.256-1.707-0.939-2.304-0.597-0.597-1.451-0.939-2.389-0.853zM35.584 19.456c-0.427 0.427-1.024 0.683-1.621 0.683-0.427 0-0.768-0.085-1.109-0.341-0.341-0.171-0.512-0.597-0.427-0.939 0-0.427 0.171-0.768 0.512-1.024 0.427-0.256 0.939-0.427 1.451-0.427 0.683-0.085 1.28 0.171 1.877 0.512 0 0.597-0.256 1.109-0.683 1.536z"></path>
<path d="M41.643 19.029l-2.219-5.461h-1.536l3.072 7.083-1.792 3.84h1.451l4.779-10.923h-1.536z"></path>
</svg>
