<svg xmlns="http://www.w3.org/2000/svg" xmlns:xlink="http://www.w3.org/1999/xlink" width="64" height="64" viewBox="0 0 64 64">
  <defs>
    <polygon id="icon-cart-a" points="0 0 40.779 0 40.779 46.54 0 46.54"/>
  </defs>
  <g fill="none" fill-rule="evenodd" transform="translate(11.5 6)">
    <mask id="icon-cart-b" fill="#fff">
      <use xlink:href="#icon-cart-a"/>
    </mask>
    <path fill="#231F20" d="M5.06190215,44.559472 L2.05192982,44.559472 L3.20245214,11.8497858 L37.5775243,11.8497858 L38.7260664,44.559472 L5.06190215,44.559472 Z M20.5969238,1.98024495 C25.0564355,1.98024495 28.682264,5.47933779 28.9594983,9.86954085 L12.2343494,9.86954085 C12.5115837,5.47933779 16.1354319,1.98024495 20.5969238,1.98024495 Z M39.4904409,9.86954085 L30.9397432,9.86954085 C30.6585484,4.38624257 26.1495307,0 20.5969238,0 C15.044317,0 10.533319,4.38624257 10.2541044,9.86954085 L1.28953551,9.86954085 L0.000396048991,46.5397169 L40.7795804,46.5397169 L39.4904409,9.86954085 Z" mask="url(#icon-cart-b)"/>
  </g>
</svg>
